<svg version="1.1" xmlns="http://www.w3.org/2000/svg" xmlns:xlink="http://www.w3.org/1999/xlink" width="512px" height="512px" viewBox="0,0,256,256"><g fill="#fffdfd" fill-rule="nonzero" stroke="none" stroke-width="1" stroke-linecap="butt" stroke-linejoin="miter" stroke-miterlimit="10" stroke-dasharray="" stroke-dashoffset="0" font-family="none" font-weight="none" font-size="none" text-anchor="none" style="mix-blend-mode: normal"><g transform="translate(0,0.00008) scale(0.5,0.5)"><g><g><path d="M502,206.5h-82v-21.167c0,-5.523 -4.478,-10 -10,-10h-216c-5.522,0 -10,4.477 -10,10c0,5.523 4.478,10 10,10h206v76.666c0,67.348 -35.957,129.942 -94.018,164h-191.964c-58.061,-34.057 -94.018,-96.652 -94.018,-163.999v-76.666h67c5.522,0 10,-4.477 10,-10c0,-5.523 -4.478,-10 -10,-10h-77c-5.522,0 -10,4.477 -10,10v86.666c0,37.8 10.16,74.864 29.382,107.183c12.963,21.797 29.783,41.045 49.48,56.817h-68.862c-5.522,0 -10,4.477 -10,10c0,36.393 29.607,66 66,66h312c36.393,0 66,-29.607 66,-66c0,-5.523 -4.478,-10 -10,-10h-92.862c18.129,-14.516 33.812,-31.983 46.302,-51.667h28.227c53.118,0 96.333,-43.215 96.333,-96.333v-71.5c0,-5.523 -4.477,-10 -10,-10zM422.905,456c-4.578,20.572 -22.974,36 -44.905,36h-312c-21.931,0 -40.326,-15.428 -44.905,-36h90.244h197.322zM420,272v-5.5h32v21.5c0,20.034 -16.299,36.333 -36.333,36.333h-2.271c4.365,-17.006 6.604,-34.588 6.604,-52.333zM492,288c0,42.09 -34.243,76.333 -76.333,76.333h-17.02c3.193,-6.521 6.045,-13.197 8.537,-20h8.483c31.063,0 56.333,-25.271 56.333,-56.333v-31.5c0,-5.523 -4.478,-10 -10,-10h-42v-20h72z"></path></g></g><g><g><path d="M219.549,55.343l-5.203,-6.533c-7.638,-9.588 -7.649,-22.991 -0.027,-32.593c3.434,-4.326 2.71,-10.616 -1.616,-14.049c-4.327,-3.435 -10.616,-2.71 -14.05,1.616c-13.442,16.936 -13.422,40.575 0.049,57.487l5.203,6.533c9.981,12.53 9.996,30.045 0.036,42.594l-5.332,6.718c-3.434,4.326 -2.71,10.616 1.616,14.049c1.839,1.459 4.032,2.168 6.21,2.168c2.946,0 5.865,-1.296 7.84,-3.784l5.332,-6.718c15.78,-19.882 15.757,-47.634 -0.058,-67.488z"></path></g></g><g><g><path d="M274.978,77.827l-5.203,-6.532c-7.638,-9.589 -7.649,-22.992 -0.027,-32.594c3.434,-4.326 2.71,-10.616 -1.616,-14.049c-4.327,-3.435 -10.616,-2.71 -14.05,1.616c-13.442,16.936 -13.422,40.575 0.049,57.488l5.203,6.533c9.98,12.531 9.995,30.047 0.035,42.595l-5.331,6.717c-3.434,4.326 -2.71,10.616 1.616,14.049c1.839,1.459 4.032,2.167 6.21,2.167c2.946,0 5.866,-1.297 7.84,-3.784l5.33,-6.717c15.781,-19.881 15.758,-47.633 -0.056,-67.489z"></path></g></g><g><g><path d="M164.12,77.828l-5.203,-6.532c-7.638,-9.588 -7.649,-22.992 -0.028,-32.594c3.434,-4.326 2.71,-10.616 -1.616,-14.05c-4.327,-3.434 -10.616,-2.708 -14.05,1.616c-13.441,16.936 -13.421,40.576 0.05,57.488l5.203,6.533c9.98,12.531 9.995,30.047 0.036,42.594l-5.332,6.717c-3.434,4.326 -2.711,10.616 1.615,14.05c1.839,1.459 4.031,2.168 6.21,2.168c2.946,0 5.865,-1.296 7.839,-3.783l5.333,-6.718c15.78,-19.881 15.757,-47.633 -0.057,-67.489z"></path></g></g><g><g><path d="M150.28,178.26c-1.86,-1.86 -4.44,-2.93 -7.07,-2.93c-2.63,0 -5.21,1.07 -7.07,2.93c-1.859,1.87 -2.93,4.44 -2.93,7.07c0,2.63 1.07,5.21 2.93,7.08c1.86,1.86 4.44,2.92 7.07,2.92c2.63,0 5.21,-1.06 7.07,-2.92c1.869,-1.87 2.93,-4.44 2.93,-7.08c0,-2.63 -1.061,-5.21 -2.93,-7.07z"></path></g></g><g><g><path d="M362,262c-5.522,0 -10,4.477 -10,10c0,37.119 -15.056,73.598 -41.308,100.083c-3.888,3.922 -3.859,10.254 0.063,14.142c1.95,1.933 4.495,2.898 7.04,2.898c2.574,-0.001 5.148,-0.989 7.103,-2.962c29.934,-30.2 47.102,-71.81 47.102,-114.161c0,-5.523 -4.478,-10 -10,-10z"></path></g></g><g><g><path d="M293.885,399.225c-2.714,-4.811 -8.813,-6.51 -13.623,-3.797l-0.228,0.129c-4.811,2.714 -6.51,8.813 -3.797,13.623c1.838,3.258 5.227,5.089 8.719,5.089c1.664,0 3.352,-0.417 4.904,-1.292l0.228,-0.129c4.811,-2.714 6.51,-8.813 3.797,-13.623z"></path></g></g><g font-family="Inter, apple-system, BlinkMacSystemFont, &quot;Helvetica Neue&quot;, &quot;Segoe UI&quot;, &quot;Fira Sans&quot;, Roboto, Oxygen, Ubuntu, &quot;Droid Sans&quot;, Arial, sans-serif" font-weight="400" font-size="16" text-anchor="start"></g><g font-family="Inter, apple-system, BlinkMacSystemFont, &quot;Helvetica Neue&quot;, &quot;Segoe UI&quot;, &quot;Fira Sans&quot;, Roboto, Oxygen, Ubuntu, &quot;Droid Sans&quot;, Arial, sans-serif" font-weight="400" font-size="16" text-anchor="start"></g><g font-family="Inter, apple-system, BlinkMacSystemFont, &quot;Helvetica Neue&quot;, &quot;Segoe UI&quot;, &quot;Fira Sans&quot;, Roboto, Oxygen, Ubuntu, &quot;Droid Sans&quot;, Arial, sans-serif" font-weight="400" font-size="16" text-anchor="start"></g><g font-family="Inter, apple-system, BlinkMacSystemFont, &quot;Helvetica Neue&quot;, &quot;Segoe UI&quot;, &quot;Fira Sans&quot;, Roboto, Oxygen, Ubuntu, &quot;Droid Sans&quot;, Arial, sans-serif" font-weight="400" font-size="16" text-anchor="start"></g><g font-family="Inter, apple-system, BlinkMacSystemFont, &quot;Helvetica Neue&quot;, &quot;Segoe UI&quot;, &quot;Fira Sans&quot;, Roboto, Oxygen, Ubuntu, &quot;Droid Sans&quot;, Arial, sans-serif" font-weight="400" font-size="16" text-anchor="start"></g><g font-family="Inter, apple-system, BlinkMacSystemFont, &quot;Helvetica Neue&quot;, &quot;Segoe UI&quot;, &quot;Fira Sans&quot;, Roboto, Oxygen, Ubuntu, &quot;Droid Sans&quot;, Arial, sans-serif" font-weight="400" font-size="16" text-anchor="start"></g><g font-family="Inter, apple-system, BlinkMacSystemFont, &quot;Helvetica Neue&quot;, &quot;Segoe UI&quot;, &quot;Fira Sans&quot;, Roboto, Oxygen, Ubuntu, &quot;Droid Sans&quot;, Arial, sans-serif" font-weight="400" font-size="16" text-anchor="start"></g><g font-family="Inter, apple-system, BlinkMacSystemFont, &quot;Helvetica Neue&quot;, &quot;Segoe UI&quot;, &quot;Fira Sans&quot;, Roboto, Oxygen, Ubuntu, &quot;Droid Sans&quot;, Arial, sans-serif" font-weight="400" font-size="16" text-anchor="start"></g><g font-family="Inter, apple-system, BlinkMacSystemFont, &quot;Helvetica Neue&quot;, &quot;Segoe UI&quot;, &quot;Fira Sans&quot;, Roboto, Oxygen, Ubuntu, &quot;Droid Sans&quot;, Arial, sans-serif" font-weight="400" font-size="16" text-anchor="start"></g><g font-family="Inter, apple-system, BlinkMacSystemFont, &quot;Helvetica Neue&quot;, &quot;Segoe UI&quot;, &quot;Fira Sans&quot;, Roboto, Oxygen, Ubuntu, &quot;Droid Sans&quot;, Arial, sans-serif" font-weight="400" font-size="16" text-anchor="start"></g><g font-family="Inter, apple-system, BlinkMacSystemFont, &quot;Helvetica Neue&quot;, &quot;Segoe UI&quot;, &quot;Fira Sans&quot;, Roboto, Oxygen, Ubuntu, &quot;Droid Sans&quot;, Arial, sans-serif" font-weight="400" font-size="16" text-anchor="start"></g><g font-family="Inter, apple-system, BlinkMacSystemFont, &quot;Helvetica Neue&quot;, &quot;Segoe UI&quot;, &quot;Fira Sans&quot;, Roboto, Oxygen, Ubuntu, &quot;Droid Sans&quot;, Arial, sans-serif" font-weight="400" font-size="16" text-anchor="start"></g><g font-family="Inter, apple-system, BlinkMacSystemFont, &quot;Helvetica Neue&quot;, &quot;Segoe UI&quot;, &quot;Fira Sans&quot;, Roboto, Oxygen, Ubuntu, &quot;Droid Sans&quot;, Arial, sans-serif" font-weight="400" font-size="16" text-anchor="start"></g><g font-family="Inter, apple-system, BlinkMacSystemFont, &quot;Helvetica Neue&quot;, &quot;Segoe UI&quot;, &quot;Fira Sans&quot;, Roboto, Oxygen, Ubuntu, &quot;Droid Sans&quot;, Arial, sans-serif" font-weight="400" font-size="16" text-anchor="start"></g><g font-family="Inter, apple-system, BlinkMacSystemFont, &quot;Helvetica Neue&quot;, &quot;Segoe UI&quot;, &quot;Fira Sans&quot;, Roboto, Oxygen, Ubuntu, &quot;Droid Sans&quot;, Arial, sans-serif" font-weight="400" font-size="16" text-anchor="start"></g></g></g></svg>