<svg version="1.1" xmlns="http://www.w3.org/2000/svg" xmlns:xlink="http://www.w3.org/1999/xlink" width="20px" height="20px" viewBox="0,0,256,256"><g fill="#ffffff" fill-rule="evenodd" stroke="none" stroke-width="1" stroke-linecap="butt" stroke-linejoin="miter" stroke-miterlimit="10" stroke-dasharray="" stroke-dashoffset="0" font-family="none" font-weight="none" font-size="none" text-anchor="none" style="mix-blend-mode: normal"><g transform="translate(0,-0.00001) scale(12.8,12.8)"><g id="Page-1"><g transform="translate(-340,-7439)" id="Dribbble-Light-Preview"><g transform="translate(56,160)" id="icons"><path d="M289.86965,7279.12273c-1.62788,0.07345 -3.03885,0.47147 -4.17817,1.60598c-1.1433,1.14047 -1.53634,2.55687 -1.60997,4.16782c-0.04577,1.00548 -0.31344,8.60165 0.46269,10.59375c0.52339,1.34394 1.55425,2.37721 2.91049,2.90228c0.63284,0.24616 1.35524,0.41291 2.41496,0.46155c8.86082,0.401 12.14544,0.18263 13.53053,-3.36383c0.24577,-0.63128 0.41493,-1.35288 0.4617,-2.40997c0.40498,-8.88354 -0.06567,-10.80914 -1.60997,-12.3516c-1.22489,-1.22186 -2.66571,-2.05363 -12.38226,-1.60598M289.95124,7297.06748c-0.97016,-0.04368 -1.49654,-0.20547 -1.84779,-0.34145c-0.88359,-0.34343 -1.54728,-1.00448 -1.88858,-1.88291c-0.59105,-1.51368 -0.39503,-8.70289 -0.34229,-9.86619c0.05174,-1.13948 0.28259,-2.18069 1.08658,-2.98467c0.99504,-0.99258 2.28063,-1.47894 11.03398,-1.08389c1.1423,0.05161 2.1861,0.28189 2.99208,1.08389c0.99504,0.99257 1.48858,2.28788 1.08658,11.00765c-0.04378,0.96776 -0.20597,1.49283 -0.34229,1.84321c-0.90051,2.30773 -2.97218,2.62833 -11.77827,2.22436M298.08966,7283.68956c0,0.65709 0.53433,1.19109 1.19405,1.19109c0.65971,0 1.19504,-0.534 1.19504,-1.19109c0,-0.65708 -0.53533,-1.19109 -1.19504,-1.19109c-0.65971,0 -1.19405,0.53401 -1.19405,1.19109M288.86267,7288.98792c0,2.81494 2.28759,5.09687 5.10952,5.09687c2.82193,0 5.10952,-2.28193 5.10952,-5.09687c0,-2.81494 -2.28759,-5.09587 -5.10952,-5.09587c-2.82193,0 -5.10952,2.28093 -5.10952,5.09587M290.65573,7288.98792c0,-1.82633 1.4846,-3.30825 3.31646,-3.30825c1.83187,0 3.31646,1.48192 3.31646,3.30825c0,1.82733 -1.4846,3.30924 -3.31646,3.30924c-1.83186,0 -3.31646,-1.48191 -3.31646,-3.30924" id="instagram-[#167]"></path></g></g></g></g></g></svg>