<svg version="1.1" xmlns="http://www.w3.org/2000/svg" xmlns:xlink="http://www.w3.org/1999/xlink" width="50px" height="50px" viewBox="0,0,256,256"><g fill="#ffffff" fill-rule="nonzero" stroke="none" stroke-width="1" stroke-linecap="butt" stroke-linejoin="miter" stroke-miterlimit="10" stroke-dasharray="" stroke-dashoffset="0" font-family="none" font-weight="none" font-size="none" text-anchor="none" style="mix-blend-mode: normal"><g transform="scale(5.12,5.12)"><g id="Layer_1"><path d="M44,1h-38c-2.757,0 -5,2.243 -5,5v38c0,2.757 2.243,5 5,5h21v-19h-6v-6h6v-4c0,-6.065 4.935,-11 11,-11h3v6h-3c-2.757,0 -5,2.243 -5,5v4h7.867l-0.75,6h-7.117v19h11c2.757,0 5,-2.243 5,-5v-38c0,-2.757 -2.243,-5 -5,-5zM47,44c0,1.654 -1.346,3 -3,3h-9v-15h6.883l1.25,-10h-8.133v-2c0,-1.654 1.346,-3 3,-3h5v-10h-5c-7.168,0 -13,5.832 -13,13v2h-6v10h6v15h-19c-1.654,0 -3,-1.346 -3,-3v-38c0,-1.654 1.346,-3 3,-3h38c1.654,0 3,1.346 3,3z"></path></g><g font-family="Inter, apple-system, BlinkMacSystemFont, &quot;Helvetica Neue&quot;, &quot;Segoe UI&quot;, &quot;Fira Sans&quot;, Roboto, Oxygen, Ubuntu, &quot;Droid Sans&quot;, Arial, sans-serif" font-weight="400" font-size="16" text-anchor="start"></g></g></g></svg>