<svg version="1.1" xmlns="http://www.w3.org/2000/svg" xmlns:xlink="http://www.w3.org/1999/xlink" width="20px" height="14px" viewBox="0,0,256,179.2"><g fill="#ffffff" fill-rule="evenodd" stroke="none" stroke-width="1" stroke-linecap="butt" stroke-linejoin="miter" stroke-miterlimit="10" stroke-dasharray="" stroke-dashoffset="0" font-family="none" font-weight="none" font-size="none" text-anchor="none" style="mix-blend-mode: normal"><g transform="translate(0,0) scale(12.8,12.8)"><g id="Page-1"><g transform="translate(-300,-7442)" id="Dribbble-Light-Preview"><g transform="translate(56,160)" id="icons"><path d="M251.98843,7291.58588v-5.61163c1.99221,0.93743 3.53517,1.84295 5.36003,2.81928c-1.50511,0.83471 -3.36782,1.77115 -5.36003,2.79235M263.091,7283.18289c-0.34366,-0.45276 -0.92936,-0.8048 -1.55293,-0.92148c-1.83283,-0.34805 -13.2671,-0.34904 -15.09893,0c-0.50004,0.09374 -0.9453,0.32012 -1.32781,0.67216c-1.61169,1.4959 -1.10667,9.51794 -0.71819,10.81739c0.16336,0.56246 0.37453,0.96835 0.64049,1.23462c0.34266,0.35203 0.81182,0.59437 1.35072,0.70307c1.5091,0.31215 9.28368,0.48667 15.12184,0.04687c0.5379,-0.09374 1.01403,-0.34405 1.38956,-0.71105c1.49017,-1.48992 1.38857,-9.96273 0.19524,-11.84158" id="youtube-[#168]"></path></g></g></g></g></g></svg>